<svg id="F_Call_us" xmlns="http://www.w3.org/2000/svg" xmlns:xlink="http://www.w3.org/1999/xlink" width="29.969" height="29.913" viewBox="0 0 29.969 29.913">
  <defs>
    <clipPath id="clip-path">
      <rect id="Rectangle_17" data-name="Rectangle 17" width="29.969" height="29.913" fill="#0072bc"/>
    </clipPath>
  </defs>
  <g id="Group_33" data-name="Group 33" clip-path="url(#clip-path)">
    <path id="Path_81" data-name="Path 81" d="M21.173,50.788a13.529,13.529,0,0,1-5.644-1.573A29.876,29.876,0,0,1,1.351,34.759,12.7,12.7,0,0,1,0,29.769a4.138,4.138,0,0,1,1.375-3.4c.667-.6,1.272-1.269,1.917-1.894a2.147,2.147,0,0,1,3.385.009q1.694,1.661,3.353,3.359a2.134,2.134,0,0,1-.01,3.421c-.64.658-1.288,1.309-1.954,1.94a.727.727,0,0,0-.163.98,20.51,20.51,0,0,0,5.232,6.385,15.962,15.962,0,0,0,3.448,2.295.737.737,0,0,0,1.015-.177c.629-.668,1.282-1.314,1.941-1.954a2.128,2.128,0,0,1,3.379,0q1.717,1.68,3.4,3.4a2.147,2.147,0,0,1-.02,3.385c-.64.658-1.308,1.289-1.936,1.958a4.059,4.059,0,0,1-3.192,1.319" transform="translate(0 -20.877)" fill="#0072bc"/>
    <path id="Path_82" data-name="Path 82" d="M142.217,14.341c-.36.083-.263-.312-.3-.5a14.174,14.174,0,0,0-2.259-5.284,14.473,14.473,0,0,0-9.545-6.208c-.494-.091-.715-.257-.555-.771a3.509,3.509,0,0,0,.089-.519c.174-1.163.174-1.163,1.3-.947a17.194,17.194,0,0,1,13.313,13.525c.042.24.046.36-.222.4-.578.089-1.154.193-1.819.305" transform="translate(-114.31 0)" fill="#0072bc"/>
    <path id="Path_83" data-name="Path 83" d="M126.947,52.483c.083-.613.171-1.212.244-1.812.041-.336.248-.208.429-.177a10.34,10.34,0,0,1,8.3,8.057c.058.272.033.38-.27.419-.6.077-1.256.407-1.771.249-.571-.176-.411-1.017-.644-1.543a7.969,7.969,0,0,0-5.774-4.831c-.509-.116-.511-.109-.512-.361" transform="translate(-112.053 -44.526)" fill="#0072bc"/>
  </g>
</svg>
