<svg xmlns="http://www.w3.org/2000/svg" xmlns:xlink="http://www.w3.org/1999/xlink" width="316.491" height="50.178" viewBox="0 0 316.491 50.178">
  <defs>
    <clipPath id="clip-path">
      <rect id="Rectangle_16" data-name="Rectangle 16" width="316.491" height="50.178" fill="#fff"/>
    </clipPath>
  </defs>
  <g id="F_Logo" transform="translate(0 0)">
    <path id="Path_59" data-name="Path 59" d="M32.711,0,17.234,26.491l3.086,5.143L36.047,4.886h.03L38.956,0Z" transform="translate(3.471)" fill="#fff"/>
    <path id="Path_60" data-name="Path 60" d="M40.827,0,20.873,34.206l3.085,4.886L47.011,0Z" transform="translate(4.203)" fill="#fff"/>
    <g id="Group_31" data-name="Group 31" transform="translate(0 0.001)">
      <g id="Group_30" data-name="Group 30" clip-path="url(#clip-path)">
        <path id="Path_61" data-name="Path 61" d="M54.007.282,28.419,44.237,5.53,4.887h9.753L11.7,11.06l2.829,4.886L21.078,4.887h.029L24.012,0H4.372A4.371,4.371,0,0,0,.609,6.6L24.6,47.946a4.377,4.377,0,0,0,7.616.029l24.024-41.4a4.233,4.233,0,0,0,.6-2.206A4.372,4.372,0,0,0,54.007.282" transform="translate(0 -0.001)" fill="#fff"/>
        <path id="Path_62" data-name="Path 62" d="M13.38,18.518l2.829,5.144L27.323,4.887h.03L30.253,0H24.206Z" transform="translate(2.694 -0.001)" fill="#fff"/>
        <path id="Path_63" data-name="Path 63" d="M63.637,23.728q.081.618.453.619c.191,0,.425-.207.7-.619L77.241,2.288H85.4L69.738,27.6a14.485,14.485,0,0,1-1.072,1.484,6.285,6.285,0,0,1-1.382,1.237,6.728,6.728,0,0,1-1.854.845,8.733,8.733,0,0,1-2.454.31,7.253,7.253,0,0,1-2.309-.31,4.287,4.287,0,0,1-1.505-.845,3.368,3.368,0,0,1-.885-1.237,8.325,8.325,0,0,1-.454-1.484L53,2.288h7.5Z" transform="translate(10.673 0.46)" fill="#fff"/>
        <path id="Path_64" data-name="Path 64" d="M76.027,31.149,82.171,2.289h7.421L83.448,31.149Z" transform="translate(15.31 0.46)" fill="#fff"/>
        <path id="Path_65" data-name="Path 65" d="M86.632,25.377h16a2.223,2.223,0,0,0,2.514-2.514,1.588,1.588,0,0,0-.371-1.032,2.988,2.988,0,0,0-1.4-.782L93.229,17.667A5.373,5.373,0,0,1,90.3,15.524a6.7,6.7,0,0,1-.907-3.628,16.179,16.179,0,0,1,.247-2.721,8.944,8.944,0,0,1,2.453-5.093q1.876-1.793,5.793-1.794H115.7l-1.237,5.773H99.537a2.435,2.435,0,0,0-1.835.66,2.438,2.438,0,0,0-.639,1.773,1.57,1.57,0,0,0,.432,1.092,3.327,3.327,0,0,0,1.422.8l9.112,2.967a7.789,7.789,0,0,1,3.628,2.185,5.788,5.788,0,0,1,1.2,3.876,13.963,13.963,0,0,1-.247,2.474,16.122,16.122,0,0,1-.887,3.092,6.7,6.7,0,0,1-1.505,2.289,6.072,6.072,0,0,1-2.37,1.4,10.807,10.807,0,0,1-3.4.475H85.4Z" transform="translate(17.197 0.46)" fill="#fff"/>
        <path id="Path_66" data-name="Path 66" d="M109.658,31.149,115.8,2.289h7.421l-6.144,28.861Z" transform="translate(22.083 0.46)" fill="#fff"/>
        <path id="Path_67" data-name="Path 67" d="M139.647,2.014a28.241,28.241,0,0,1,5.9.536,10.686,10.686,0,0,1,4.081,1.711,7.1,7.1,0,0,1,2.392,3.052,11.834,11.834,0,0,1,.783,4.556q0,1.321-.1,2.638a24.7,24.7,0,0,1-.475,3.092,31.685,31.685,0,0,1-2.289,7.277,10.956,10.956,0,0,1-3.422,4.228,11.779,11.779,0,0,1-5.071,1.957,47.1,47.1,0,0,1-7.236.475,28.24,28.24,0,0,1-5.9-.536,10.667,10.667,0,0,1-4.081-1.711,7.075,7.075,0,0,1-2.392-3.052,11.811,11.811,0,0,1-.783-4.556q0-1.319.1-2.638a24.776,24.776,0,0,1,.475-3.092,31.727,31.727,0,0,1,2.287-7.236,10.954,10.954,0,0,1,3.423-4.226,11.953,11.953,0,0,1,5.071-1.979,45.07,45.07,0,0,1,7.236-.495m-10.472,14.76a19.914,19.914,0,0,0-.536,4.2q0,2.681,1.463,3.731t4.886,1.052a14.185,14.185,0,0,0,3.855-.454,6.431,6.431,0,0,0,2.7-1.505,8.257,8.257,0,0,0,1.855-2.762,22.45,22.45,0,0,0,1.278-4.267,19.428,19.428,0,0,0,.536-4.164q0-2.68-1.484-3.752t-4.906-1.073a14.167,14.167,0,0,0-3.855.454,6.437,6.437,0,0,0-2.7,1.505,8.028,8.028,0,0,0-1.836,2.762,23.65,23.65,0,0,0-1.257,4.267" transform="translate(24.377 0.405)" fill="#fff"/>
        <path id="Path_68" data-name="Path 68" d="M178.015,26.917a8.309,8.309,0,0,1-.6,1.731,4.557,4.557,0,0,1-1.112,1.464,5.479,5.479,0,0,1-1.835,1.031,8.127,8.127,0,0,1-2.68.39,12.8,12.8,0,0,1-1.463-.082,5.223,5.223,0,0,1-1.382-.351,3.6,3.6,0,0,1-1.2-.8,4.372,4.372,0,0,1-.907-1.4l-7.215-16.945c-.247-.467-.469-.7-.66-.7a.7.7,0,0,0-.33.124c-.137.082-.247.316-.329.7l-4.082,19.131h-6.68l5.237-24.656a6.338,6.338,0,0,1,.887-2.206,4.593,4.593,0,0,1,1.463-1.4,6.017,6.017,0,0,1,1.9-.721,11.153,11.153,0,0,1,2.185-.207,7.73,7.73,0,0,1,2.865.515A3.446,3.446,0,0,1,164,4.488l7.3,17.111c.055.137.117.288.186.453a.384.384,0,0,0,.392.247.455.455,0,0,0,.453-.268,2.71,2.71,0,0,0,.166-.432l4.081-19.255h6.678Z" transform="translate(29.713 0.405)" fill="#fff"/>
        <path id="Path_69" data-name="Path 69" d="M189.591,5.395A9.43,9.43,0,0,1,190.7,3.91,5.941,5.941,0,0,1,192,2.859a5.5,5.5,0,0,1,1.69-.639,11.144,11.144,0,0,1,2.287-.205,7.14,7.14,0,0,1,3.238.639,3.719,3.719,0,0,1,1.711,2.742L206.248,31.2h-7.38l-1.2-6.6H185.509l-4,6.6h-8.123ZM188.519,19h8.535l-1.732-9.153a6.02,6.02,0,0,1-.123-.618c-.029-.192-.111-.29-.247-.29s-.276.1-.413.29-.274.4-.412.618Z" transform="translate(34.917 0.405)" fill="#fff"/>
        <path id="Path_70" data-name="Path 70" d="M201.941,31.149l6.143-28.861h7.422l-6.144,28.861Z" transform="translate(40.667 0.46)" fill="#fff"/>
        <path id="Path_71" data-name="Path 71" d="M217.088,6.741a5.913,5.913,0,0,1,1.731-3.4,5.393,5.393,0,0,1,3.587-1.051H237q3.586,0,5.132,1.916a8.292,8.292,0,0,1,1.546,5.34c0,.357-.02.811-.061,1.36s-.09,1.058-.144,1.526a20.6,20.6,0,0,1-.866,3.628,9.647,9.647,0,0,1-1.587,2.948,7.132,7.132,0,0,1-2.516,1.979,8.372,8.372,0,0,1-3.649.722H232.8l-.041.205,7.216,9.236h-8.7l-5.319-7.5q-.618-.867-1.2-1.835a3.671,3.671,0,0,1-.578-1.877,2.759,2.759,0,0,1,.042-.453c.026-.166.068-.358.124-.578a2.6,2.6,0,0,1,1.567-2.123,9.273,9.273,0,0,1,3.257-.475H231.6a3.667,3.667,0,0,0,2.948-1.051,7.368,7.368,0,0,0,1.34-3.237q.083-.5.144-.927a5.793,5.793,0,0,0,.062-.8,1.975,1.975,0,0,0-.7-1.731,4.214,4.214,0,0,0-2.35-.495h-6.885a2.424,2.424,0,0,0-1.587.434,2.706,2.706,0,0,0-.763,1.5L219.314,31.15h-7.421Z" transform="translate(42.671 0.46)" fill="#fff"/>
        <path id="Path_72" data-name="Path 72" d="M267.193,7.9H252.35a2.431,2.431,0,0,0-1.587.432A2.718,2.718,0,0,0,250,9.834l-.824,4h16.408l-1.153,5.359H248.02l-.948,4.413a4.005,4.005,0,0,0-.061.412,3.568,3.568,0,0,0-.02.37,1.006,1.006,0,0,0,.371.907,2.3,2.3,0,0,0,1.236.249h15.008l-1.2,5.607h-20a3.673,3.673,0,0,1-2.638-.866,3.09,3.09,0,0,1-.907-2.35,6.057,6.057,0,0,1,.124-1.2l4.247-20a5.914,5.914,0,0,1,1.731-3.4,5.393,5.393,0,0,1,3.587-1.051h19.831Z" transform="translate(48.103 0.46)" fill="#fff"/>
        <path id="Path_73" data-name="Path 73" d="M75.6,32.424h2.787L76.745,40.14h4.272L80.5,42.57H73.443Z" transform="translate(14.79 6.529)" fill="#fff"/>
        <path id="Path_74" data-name="Path 74" d="M97.512,32.424H100.3L98.141,42.57H95.355Z" transform="translate(19.202 6.529)" fill="#fff"/>
        <path id="Path_75" data-name="Path 75" d="M120.955,41.725a4.685,4.685,0,0,1-1.229.708,3.684,3.684,0,0,1-1.287.221,3.9,3.9,0,0,1-1.486-.279,3.337,3.337,0,0,1-1.186-.807,3.764,3.764,0,0,1-.786-1.287,4.857,4.857,0,0,1-.286-1.729,5.733,5.733,0,0,1,.521-2.429,6.423,6.423,0,0,1,1.394-1.964,6.639,6.639,0,0,1,1.986-1.316,5.824,5.824,0,0,1,2.315-.478,4.8,4.8,0,0,1,1.216.149,3.638,3.638,0,0,1,1.028.443,3.088,3.088,0,0,1,.772.7,2.865,2.865,0,0,1,.471.923L122,36.166a1.746,1.746,0,0,0-1.714-1.329,2.111,2.111,0,0,0-1.028.264,2.972,2.972,0,0,0-.865.714,3.478,3.478,0,0,0-.6,1.064,3.858,3.858,0,0,0-.221,1.316A2.266,2.266,0,0,0,118,39.639a1.458,1.458,0,0,0,1.215.542,3.266,3.266,0,0,0,2.2-1h-1.658l.414-2h4.058l-1.157,5.4h-2.287Z" transform="translate(23.097 6.517)" fill="#fff"/>
        <path id="Path_76" data-name="Path 76" d="M140.146,32.424h2.786l-.8,3.745h3.03l.8-3.745h2.787L146.591,42.57H143.8l.843-3.973h-3.03l-.843,3.973h-2.786Z" transform="translate(27.788 6.529)" fill="#fff"/>
        <path id="Path_77" data-name="Path 77" d="M165.317,34.853h-2.73l.514-2.429h8.232l-.514,2.429H168.1L166.46,42.57h-2.787Z" transform="translate(32.742 6.529)" fill="#fff"/>
        <path id="Path_78" data-name="Path 78" d="M186.3,32.424h2.786L186.928,42.57h-2.786Z" transform="translate(37.082 6.529)" fill="#fff"/>
        <path id="Path_79" data-name="Path 79" d="M205.273,32.424h2.172l2.572,5.159,1.086-5.159h2.787L211.731,42.57h-2.2l-2.573-4.988L205.9,42.57h-2.786Z" transform="translate(40.903 6.529)" fill="#fff"/>
        <path id="Path_80" data-name="Path 80" d="M233.569,41.725a4.685,4.685,0,0,1-1.229.708,3.684,3.684,0,0,1-1.287.221,3.9,3.9,0,0,1-1.486-.279,3.327,3.327,0,0,1-1.186-.807,3.764,3.764,0,0,1-.786-1.287,4.857,4.857,0,0,1-.286-1.729,5.715,5.715,0,0,1,.521-2.429,6.423,6.423,0,0,1,1.394-1.964,6.609,6.609,0,0,1,1.986-1.316,5.824,5.824,0,0,1,2.315-.478,4.779,4.779,0,0,1,1.215.149,3.631,3.631,0,0,1,1.03.443,3.062,3.062,0,0,1,.771.7,2.892,2.892,0,0,1,.472.923l-2.4,1.586a1.746,1.746,0,0,0-1.714-1.329,2.119,2.119,0,0,0-1.03.264,2.968,2.968,0,0,0-.864.714,3.454,3.454,0,0,0-.6,1.064,3.858,3.858,0,0,0-.222,1.316,2.266,2.266,0,0,0,.429,1.444,1.459,1.459,0,0,0,1.216.542,3.266,3.266,0,0,0,2.2-1h-1.658l.414-2h4.058l-1.158,5.4H233.4Z" transform="translate(45.775 6.517)" fill="#fff"/>
      </g>
    </g>
  </g>
</svg>
